<?xml version="1.0" encoding="UTF-8" standalone="no"?>
<!-- Created with Inkscape (http://www.inkscape.org/) -->

<svg
   xmlns:dc="http://purl.org/dc/elements/1.1/"
   xmlns:cc="http://creativecommons.org/ns#"
   xmlns:rdf="http://www.w3.org/1999/02/22-rdf-syntax-ns#"
   xmlns:svg="http://www.w3.org/2000/svg"
   xmlns="http://www.w3.org/2000/svg"
   xmlns:sodipodi="http://sodipodi.sourceforge.net/DTD/sodipodi-0.dtd"
   xmlns:inkscape="http://www.inkscape.org/namespaces/inkscape"
   width="128"
   height="128"
   viewBox="0 0 128 128"
   id="svg2"
   version="1.1"
   inkscape:version="0.91 r13725"
   sodipodi:docname="icon.svg">
  <defs
     id="defs4" />
  <sodipodi:namedview
     id="base"
     pagecolor="#ffffff"
     bordercolor="#666666"
     borderopacity="1.0"
     inkscape:pageopacity="0.0"
     inkscape:pageshadow="2"
     inkscape:zoom="5.6568543"
     inkscape:cx="77.171475"
     inkscape:cy="72.08989"
     inkscape:document-units="px"
     inkscape:current-layer="g4179"
     showgrid="false"
     units="px"
     showguides="false"
     inkscape:window-width="1858"
     inkscape:window-height="1057"
     inkscape:window-x="54"
     inkscape:window-y="-8"
     inkscape:window-maximized="1" />
  <metadata
     id="metadata7">
    <rdf:RDF>
      <cc:Work
         rdf:about="">
        <dc:format>image/svg+xml</dc:format>
        <dc:type
           rdf:resource="http://purl.org/dc/dcmitype/StillImage" />
        <dc:title></dc:title>
      </cc:Work>
    </rdf:RDF>
  </metadata>
  <g
     inkscape:label="Layer 1"
     inkscape:groupmode="layer"
     id="layer1"
     transform="translate(0,-924.36216)">
    <g
       style="fill:#000000"
       id="g4179"
       transform="matrix(4.8958333,0,0,4.0104167,11.402711,940.23716)">
      <path
         id="path4169"
         d="m 18.743276,1.9999998 -15.9999996,0 c -1.1000001,0 -1.99000008,0.9000001 -1.99000008,2.0000001 L 0.74327632,22 4.7432763,18 18.743276,18 c 1.1,0 2,-0.9 2,-2 l 0,-12.0000001 c 0,-1.1 -0.9,-2.0000001 -2,-2.0000001 z m -2,12.0000002 -11.9999997,0 0,-2 11.9999997,0 0,2 z m 0,-3 -11.9999997,0 0,-2.0000001 11.9999997,0 0,2.0000001 z m 0,-3.0000001 -11.9999997,0 0,-2 11.9999997,0 0,2 z"
         inkscape:connector-curvature="0"
         style="fill:#225ac1;fill-opacity:1" />
      <path
         id="path4171"
         d="M 0,0 24,0 24,24 0,24 Z"
         inkscape:connector-curvature="0"
         style="fill:none" />
    </g>
    <g
       style="fill:#000000"
       id="g4150"
       transform="translate(87.937962,1026.4944)">
      <path
         id="path4138"
         d="M 0,0 24,0 24,24 0,24 Z"
         inkscape:connector-curvature="0"
         style="fill:none" />
      <path
         id="path4142"
         d="M 0,0 24,0 24,24 0,24 Z"
         inkscape:connector-curvature="0"
         style="fill:none" />
      <path
         id="path4140"
         d="m -7.8665335,-59.00724 -2.6785715,0 0,-5.357143 c 0,-7.392857 -6,-13.392857 -13.392857,-13.392857 -7.392857,0 -13.392857,6 -13.392857,13.392857 l 0,5.357143 -2.678572,0 c -2.946428,0 -5.357142,2.410714 -5.357142,5.357143 l 0,26.785714 c 0,2.946429 2.410714,5.357143 5.357142,5.357143 l 32.1428575,0 c 2.9464286,0 5.3571429,-2.410714 5.3571429,-5.357143 l 0,-26.785714 c 0,-2.946429 -2.4107143,-5.357143 -5.3571429,-5.357143 z m -24.3749995,-5.357143 c 0,-4.580357 3.723214,-8.303571 8.303571,-8.303571 4.580357,0 8.303571,3.723214 8.303571,8.303571 l 0,5.357143 -16.607142,0 0,-5.357143 z m 19.017857,26.785714 -8.035715,0 0,8.035715 -5.357142,0 0,-8.035715 -8.035715,0 0,-5.357142 8.035715,0 0,-8.035715 5.357142,0 0,8.035715 8.035715,0 0,5.357142 z"
         inkscape:connector-curvature="0"
         style="fill:#105b10;fill-opacity:1" />
    </g>
  </g>
</svg>
